<?xml version="1.0" standalone="no"?><!DOCTYPE svg PUBLIC "-//W3C//DTD SVG 1.1//EN" "http://www.w3.org/Graphics/SVG/1.1/DTD/svg11.dtd"><svg t="1610720010620" class="icon" viewBox="0 0 1024 1024" version="1.1" xmlns="http://www.w3.org/2000/svg" p-id="3245" xmlns:xlink="http://www.w3.org/1999/xlink" width="200" height="200"><defs><style type="text/css"></style></defs><path d="M448 497.6c-51.3 0-93-41.7-93-93s41.7-93 93-93 93 41.7 93 93-41.7 93-93 93z m0-140.5c-26.2 0-47.5 21.3-47.5 47.5s21.3 47.5 47.5 47.5 47.5-21.3 47.5-47.5-21.3-47.5-47.5-47.5zM448 730.1c-51.3 0-93-41.7-93-93s41.7-93 93-93 93 41.7 93 93-41.7 93-93 93z m0-140.5c-26.2 0-47.5 21.3-47.5 47.5s21.3 47.5 47.5 47.5 47.5-21.3 47.5-47.5c0-26.1-21.3-47.5-47.5-47.5zM650.1 602.3c-51.3 0-93-41.7-93-93s41.7-93 93-93 93 41.7 93 93-41.7 93-93 93z m0-140.5c-26.2 0-47.5 21.3-47.5 47.5s21.3 47.5 47.5 47.5 47.5-21.3 47.5-47.5-21.3-47.5-47.5-47.5z" p-id="3246"></path><path d="M686.5 938.3c-43.6 0-82.2-26.2-99.2-64.8-25.4 5.6-51.3 8.5-77.5 8.5-22.2 0-44.3-2.1-66-6.1-7 14.9-17.3 28.1-30.3 38.5-19.1 15.4-43.2 23.9-67.8 23.9-59.7 0-108.3-48.6-108.3-108.3 0-20.3 5.6-39.9 16.1-56.9-26.3-27.2-47.8-58.1-64.2-92-1.7 0.1-3.3 0.1-5 0.1C124.6 681.1 76 632.5 76 572.8c0-50.6 35.1-93.7 82.7-105.3 3-18.3 7.5-36.3 13.3-53.9-27.2-20.2-43.9-52.5-43.9-87 0-59.7 48.6-108.3 108.3-108.3 22.8 0 45 7.3 63.3 20.5 31.1-22.8 65.1-40.1 101.7-51.8 0.9-58.9 49.2-106.6 108.3-106.6S617.2 128 618.1 187c33.7 10.7 65.5 26.4 94.7 46.7 16.7-10 36-15.4 55.7-15.4 59.7 0 108.3 48.6 108.3 108.3 0 29.4-11.9 57.2-32.6 77.4 7.3 19.9 12.7 40.5 16.3 61.4 52.7 7.3 93.5 52.6 93.5 107.3 0 59.7-48.6 108.3-108.3 108.3-5 0-10-0.3-15-1-14.9 31.1-34.1 59.6-57.4 85.2 13.8 18.5 21.5 41.2 21.5 64.7 0 59.8-48.6 108.4-108.3 108.4z m-66.4-120.8l4.7 24.5c5.7 29.5 31.6 50.9 61.7 50.9 34.7 0 62.9-28.2 62.9-62.9 0-18.4-8-35.8-22-47.8l-19-16.2 17.9-17.4c30.5-29.7 54.2-64.5 70.4-103.7l8.2-19.8 20.2 7c6.6 2.3 13.6 3.5 20.6 3.5 34.7 0 62.9-28.2 62.9-62.9s-28.2-62.9-62.9-62.9c-1.1 0-2.3 0-3.7 0.1l-21.4 1.2-2.5-21.3c-3.4-29-10.8-57.3-22-84.1l-7.2-17 15.2-10.5c17-11.8 27.2-31.1 27.2-51.8 0-34.7-28.2-62.9-62.9-62.9-15 0-29.6 5.4-41 15.3l-14 12.1-14.7-11.3c-33.1-25.4-70.3-43.7-110.4-54.1l-20.3-5.3 3.6-20.7c0.7-3.7 1-7.4 1-11 0-34.7-28.2-62.9-62.9-62.9s-62.9 28.2-62.9 62.9c0 3.6 0.3 7.3 1 11l3.6 20.7-20.3 5.3c-43.4 11.3-83 31.5-117.9 60L296.8 299l-14.5-15.5c-12-12.8-28.3-19.9-45.9-19.9-34.7 0-62.9 28.2-62.9 62.9 0 24.1 14.1 46.4 35.9 56.8l19.1 9.1-7.8 19.7c-9.8 24.8-16.3 51-19.4 77.7l-2.2 18.9-19 1.2c-33 2.1-58.9 29.6-58.9 62.7 0 34.7 28.2 62.9 62.9 62.9 4.6 0 9.2-0.5 13.8-1.5l18.5-4.1 7.4 17.4c17 40.1 43.1 77 75.3 106.8l17 15.7-16 16.7c-11.2 11.8-17.4 27.2-17.4 43.4 0 34.7 28.2 62.9 62.9 62.9 29.4 0 54.6-20 61.2-48.6l5.2-22.5 22.4 5.6c24.5 6.1 49.8 9.2 75.2 9.2 29.3 0 58.4-4.1 86.3-12.2l24.2-6.8z" p-id="3247"></path></svg>